HIERARCHY
ROOT Hips
{
	OFFSET 0.00000 0.00000 0.00000
	CHANNELS 6 Xposition Yposition Zposition Zrotation Yrotation Xrotation 
	JOINT LHipJoint
	{
		OFFSET 0 0 0
		CHANNELS 3 Zrotation Yrotation Xrotation
		JOINT LeftHip
		{
			OFFSET 1.48831 -1.59570 0.95625
			CHANNELS 3 Zrotation Yrotation Xrotation
			JOINT LeftKnee
			{
				OFFSET 2.20856 -6.06797 0.00000
				CHANNELS 3 Zrotation Yrotation Xrotation
				JOINT LeftAnkle
				{
					OFFSET 2.62924 -7.22379 0.00000
					CHANNELS 3 Zrotation Yrotation Xrotation
					JOINT LeftToe
					{
						OFFSET 0.16802 -0.46163 2.41673
						CHANNELS 3 Zrotation Yrotation Xrotation
						End Site
						{
							OFFSET 0.00000 -0.00000 1.23760
						}
					}
				}
			}
		}
	}
	JOINT RHipJoint
	{
		OFFSET 0 0 0
		CHANNELS 3 Zrotation Yrotation Xrotation
		JOINT RightHip
		{
			OFFSET -1.56796 -1.59570 0.95625
			CHANNELS 3 Zrotation Yrotation Xrotation
			JOINT RightKnee
			{
				OFFSET -2.29239 -6.29829 0.00000
				CHANNELS 3 Zrotation Yrotation Xrotation
				JOINT RightAnkle
				{
					OFFSET -2.66963 -7.33475 0.00000
					CHANNELS 3 Zrotation Yrotation Xrotation
					JOINT RightToe
					{
						OFFSET -0.18185 -0.49964 2.34359
						CHANNELS 3 Zrotation Yrotation Xrotation
						End Site
						{
							OFFSET -0.00000 -0.00000 1.20477
						}
					}
				}
			}
		}
	}
	JOINT lowerback
	{
		OFFSET 0 0 0
		CHANNELS 3 Zrotation Yrotation Xrotation
		JOINT Chest
		{
			OFFSET 0.03505 2.15832 -0.34324
			CHANNELS 3 Zrotation Yrotation Xrotation
			JOINT Chest2
			{
				OFFSET -0.01089 2.17963 0.04689
				CHANNELS 3 Zrotation Yrotation Xrotation
				JOINT lowerneck
				{
					OFFSET 0 0 0
					CHANNELS 3 Zrotation Yrotation Xrotation
					JOINT Neck
					{
						OFFSET 0.04686 1.69404 0.22159
						CHANNELS 3 Zrotation Yrotation Xrotation
						JOINT Head
						{
							OFFSET 0.00265 1.69305 -0.01513
							CHANNELS 3 Zrotation Yrotation Xrotation
							End Site
							{
								OFFSET -0.00415 1.80215 -0.03034
							}
						}
					}
				}
				JOINT LeftCollar
				{
					OFFSET 0 0 0
					CHANNELS 3 Zrotation Yrotation Xrotation
					JOINT LeftShoulder
					{
						OFFSET 3.67184 1.11724 -0.19002
CHANNELS 3 Zrotation Xrotation Yrotation
						JOINT LeftElbow
						{
OFFSET 0 -5.177140 -0.000000
CHANNELS 3 Zrotation Xrotation Yrotation
							JOINT LeftWrist
							{
OFFSET 0 -3.436790 -0.000000
CHANNELS 3 Zrotation Xrotation Yrotation
								JOINT lhand
								{
									OFFSET 0 0 0
CHANNELS 3 Zrotation Xrotation Yrotation
									JOINT LFingers
									{
OFFSET 0 -0.573120 -0.000000
CHANNELS 3 Zrotation Xrotation Yrotation
										End Site
										{
OFFSET 0 -0.462060 -0.000000
										}
									}
								}
								JOINT LThumb
								{
OFFSET 0 0.000000 0.000000
CHANNELS 3 Zrotation Xrotation Yrotation
									End Site
									{
OFFSET 0 -0.469120 0.469120
									}
								}
							}
						}
					}
				}
				JOINT RightCollar
				{
					OFFSET 0 0 0
					CHANNELS 3 Zrotation Yrotation Xrotation
					JOINT RightShoulder
					{
						OFFSET -3.59596 0.95831 -0.26050
CHANNELS 3 Zrotation Xrotation Yrotation
						JOINT RightElbow
						{
OFFSET 0 -5.239080 -0.000000
CHANNELS 3 Zrotation Xrotation Yrotation
							JOINT RightWrist
							{
OFFSET 0 -3.464850 -0.000000
CHANNELS 3 Zrotation Xrotation Yrotation
								JOINT rhand
								{
									OFFSET 0 0 0
CHANNELS 3 Zrotation Xrotation Yrotation
									JOINT RFingers
									{
OFFSET 0 -0.608750 -0.000000
CHANNELS 3 Zrotation Xrotation Yrotation
										End Site
										{
OFFSET 0 -0.490790 -0.000000
										}
									}
								}
								JOINT RThumb
								{
OFFSET 0 0.000000 0.000000
CHANNELS 3 Zrotation Xrotation Yrotation
									End Site
									{
OFFSET 0 -0.498290 0.498290
									}
								}
							}
						}
					}
				}
			}
		}
	}
}
MOTION
Frames: 8
Frame Time: 0.008333333333333333
19.655281 15.850456 -8.790381 -4.409859 -56.056853 16.309035 0.000000 0.000000 0.000000 -11.656020 -5.551137 -46.869944 12.520417 18.601249 67.628249 0.668945 -4.667488 -14.572501 0.518158 -4.612941 -12.807885 0.000000 0.000000 0.000000 20.616672 12.926134 -47.260059 -4.938485 -13.313899 40.555701 -0.151758 -7.554150 -13.586388 -0.155729 -2.542583 7.007784 3.737071 -2.008800 21.477707 0.084311 -2.926258 15.769072 -1.560972 -1.529302 5.209648 4.758734 0.761141 6.394040 -0.836608 1.414310 -9.540364 -1.210567 0.550049 -4.256129 0.000000 0.000000 0.000000 5.797417 -19.299133 -38.178413 75.462639 -59.186194 47.444656 27.371580 0.673744 -7.533070 0.000000 0.000000 0.000000 -7.125000 0.000000 0.000000 0.480253 38.449030 0.077585 0.000000 0.000000 0.000000 -3.640949 -21.964171 46.787160 -82.849898 -59.805923 -53.811890 -27.948174 16.387060 5.856354 0.000000 0.000000 0.000000 7.125000 0.000000 0.000000 -1.041744 36.601193 -0.215188
19.493293 15.789615 -8.739997 -4.472933 -55.805304 16.651833 0.000000 0.000000 0.000000 -11.866646 -6.171767 -48.445002 10.896818 17.882350 62.443600 0.906533 -6.420775 -16.982395 0.574551 -4.854064 -13.492829 0.000000 0.000000 0.000000 20.795272 12.804211 -48.056203 -5.380141 -13.799266 42.439722 -0.331880 -6.551238 -15.225697 -0.117326 -2.207953 6.080714 3.766125 -2.040732 21.620729 0.132113 -2.958241 15.798092 -1.515619 -1.546363 5.173824 4.759783 0.752369 6.393888 -0.771048 1.409117 -9.563727 -1.188468 0.543603 -4.264949 0.000000 0.000000 0.000000 5.622852 -19.573748 -37.840511 75.501193 -59.190612 47.477796 27.612497 0.514972 -6.991833 0.000000 0.000000 0.000000 -7.125000 0.000000 0.000000 0.713413 37.858780 0.125516 0.000000 0.000000 0.000000 -3.730965 -22.203660 46.523228 -82.901301 -59.808697 -53.856280 -28.040162 16.342326 5.820346 0.000000 0.000000 0.000000 7.125000 0.000000 0.000000 -1.120587 36.565831 -0.232480
19.345765 15.734559 -8.680887 -4.550607 -55.754383 16.883160 0.000000 0.000000 0.000000 -12.151193 -6.640828 -49.247432 9.291342 16.991304 57.091867 0.997600 -7.628785 -17.859967 0.676162 -5.257907 -14.645783 0.000000 0.000000 0.000000 20.889358 12.878932 -48.505473 -5.771139 -14.202823 44.056203 -0.520743 -5.547470 -16.786711 -0.102904 -2.068532 5.694996 3.753852 -2.016078 21.821527 0.177981 -2.926238 15.833413 -1.458228 -1.536935 5.121348 4.690686 0.761604 6.352003 -0.726452 1.416280 -9.467246 -1.159788 0.549564 -4.221639 0.000000 0.000000 0.000000 5.417020 -19.690368 -37.634130 75.533862 -59.194308 47.505829 27.776522 0.395329 -6.633835 0.000000 0.000000 0.000000 -7.125000 0.000000 0.000000 0.868734 37.467042 0.161121 0.000000 0.000000 0.000000 -3.831122 -22.325081 46.310432 -82.981846 -59.813068 -53.925974 -28.125228 16.443637 5.796180 0.000000 0.000000 0.000000 7.125000 0.000000 0.000000 -1.193144 36.543372 -0.248188
19.214127 15.689849 -8.612647 -4.733960 -56.037632 17.105401 0.000000 0.000000 0.000000 -12.459608 -6.639513 -49.518744 8.100391 16.191858 52.922437 0.934721 -7.565098 -17.292548 0.722364 -5.430724 -15.141293 0.000000 0.000000 0.000000 20.995055 13.140868 -48.651043 -6.100259 -14.524697 45.382611 -0.687737 -4.656263 -18.042395 -0.100006 -2.039498 5.614843 3.755759 -1.901886 21.953499 0.185723 -2.785900 15.876483 -1.471944 -1.470747 5.114843 4.596565 0.780230 6.328846 -0.781673 1.424946 -9.338362 -1.160280 0.562989 -4.170202 0.000000 0.000000 0.000000 5.238049 -19.615809 -37.536220 75.693751 -59.212349 47.643190 27.952193 0.185050 -6.381014 0.000000 0.000000 0.000000 -7.125000 0.000000 0.000000 1.027872 37.193392 0.197460 0.000000 0.000000 0.000000 -3.895902 -22.356053 46.165005 -83.091355 -59.818884 -54.020565 -28.117544 16.419489 5.793952 0.000000 0.000000 0.000000 7.125000 0.000000 0.000000 -1.186778 36.540446 -0.246938
19.101781 15.654505 -8.535032 -4.923335 -56.489441 17.206660 0.000000 0.000000 0.000000 -12.765597 -6.435304 -49.301650 7.423082 15.677940 50.456678 0.688939 -6.636313 -14.830183 0.490453 -4.483514 -12.442292 0.000000 0.000000 0.000000 21.078191 13.400779 -48.552623 -6.372486 -14.779762 46.458774 -0.812138 -3.950195 -18.900214 -0.105789 -2.097319 5.774589 3.834277 -1.797007 22.018840 0.128656 -2.651139 15.931105 -1.600581 -1.397176 5.149578 4.564211 0.809725 6.309747 -0.949587 1.444210 -9.169972 -1.210154 0.585608 -4.104721 0.000000 0.000000 0.000000 5.147272 -19.335391 -37.479226 76.032267 -59.249774 47.934013 28.294141 0.027047 -6.086371 0.000000 0.000000 0.000000 -7.125000 0.000000 0.000000 1.327996 36.881592 0.265323 0.000000 0.000000 0.000000 -3.884069 -22.358653 46.161365 -83.235383 -59.826399 -54.145105 -28.083228 16.211468 5.789226 0.000000 0.000000 0.000000 7.125000 0.000000 0.000000 -1.157890 36.533092 -0.241174
19.008740 15.626183 -8.454206 -5.091323 -56.939520 17.194929 0.000000 0.000000 0.000000 -13.012637 -6.344895 -48.539100 7.153438 15.459811 49.452411 0.517566 -5.238107 -12.815940 0.140772 -2.411958 -6.645830 0.000000 0.000000 0.000000 21.111577 13.649743 -48.305747 -6.599168 -14.984851 47.341590 -0.897473 -3.538844 -19.510447 -0.109657 -2.135132 5.879339 3.950548 -1.720291 22.056855 0.095980 -2.551983 16.016083 -1.720029 -1.339676 5.232808 4.498458 0.824019 6.246502 -1.107931 1.438290 -9.069720 -1.249452 0.594754 -4.055872 0.000000 0.000000 0.000000 4.966919 -18.994118 -37.463109 76.505424 -59.300566 48.340739 28.661501 0.011374 -5.819378 0.000000 0.000000 0.000000 -7.125000 0.000000 0.000000 1.646166 36.600714 0.340164 0.000000 0.000000 0.000000 -3.874864 -22.343665 46.204883 -83.385027 -59.833987 -54.274409 -28.076653 16.052675 5.718690 0.000000 0.000000 0.000000 7.125000 0.000000 0.000000 -1.154410 36.453013 -0.242664
18.931316 15.604228 -8.373757 -5.195987 -57.374082 17.146819 0.000000 0.000000 0.000000 -13.077787 -6.644779 -47.328866 7.107476 15.421689 49.279622 0.582768 -4.391636 -13.597019 0.037494 -1.244776 -3.422555 0.000000 0.000000 0.000000 21.038673 14.008278 -48.018896 -6.788409 -15.151031 48.069397 -0.966521 -3.425820 -20.107305 -0.092480 -1.961189 5.398366 3.942607 -1.694298 22.170472 0.080052 -2.529166 16.055960 -1.734492 -1.333219 5.225227 4.380333 0.880891 6.227980 -1.182103 1.495213 -9.112423 -1.256464 0.630109 -4.065346 0.000000 0.000000 0.000000 4.712051 -18.557814 -37.266927 77.167268 -59.368482 48.910054 28.878474 -0.009577 -5.647251 0.000000 0.000000 0.000000 -7.125000 0.000000 0.000000 1.833201 36.417383 0.387091 0.000000 0.000000 0.000000 -3.839662 -22.217485 46.429932 -83.526976 -59.841059 -54.397202 -28.213142 16.152654 5.755140 0.000000 0.000000 0.000000 7.125000 0.000000 0.000000 -1.268667 36.501960 -0.265171
18.861984 15.588039 -8.293268 -5.189408 -57.788691 17.105530 0.000000 0.000000 0.000000 -13.097394 -7.208030 -46.022645 6.958425 15.296758 48.716917 0.697046 -3.792178 -14.944267 0.008603 -0.598135 -1.643567 0.000000 0.000000 0.000000 20.833692 14.448325 -47.819149 -6.958616 -15.296959 48.717543 -1.009101 -3.419724 -20.500409 -0.087733 -1.910940 5.259537 3.864562 -1.691911 22.323904 0.006720 -2.537651 16.041094 -1.762916 -1.344572 5.130762 4.386929 0.952139 6.258643 -1.196367 1.592264 -9.209162 -1.269264 0.676998 -4.102780 0.000000 0.000000 0.000000 4.557868 -18.144060 -37.028772 77.790637 -59.429202 49.446646 29.066656 -0.082994 -5.506873 0.000000 0.000000 0.000000 -7.125000 0.000000 0.000000 1.994462 36.268105 0.428451 0.000000 0.000000 0.000000 -3.619221 -21.993247 46.670059 -83.619155 -59.845576 -54.476915 -28.307040 16.304854 5.815295 0.000000 0.000000 0.000000 7.125000 0.000000 0.000000 -1.346455 36.575531 -0.279001
